<svg width="18" height="18" viewBox="0 0 18 18" fill="none" xmlns="http://www.w3.org/2000/svg">
<path d="M5.14445 0.605769C5.14445 0.271215 4.83983 0 4.46406 0C4.08829 0 3.78366 0.271215 3.78366 0.605769V1.88132C2.47791 1.97441 1.62071 2.20288 0.990935 2.76358C0.361162 3.32428 0.104554 4.08746 0 5.25H18C17.8955 4.08746 17.6388 3.32428 17.0091 2.76358C16.3793 2.20288 15.5221 1.97441 14.2164 1.88132V0.605769C14.2164 0.271215 13.9117 0 13.536 0C13.1602 0 12.8556 0.271215 12.8556 0.605769V1.82773C12.252 1.81731 11.5755 1.81731 10.8144 1.81731H7.18563C6.42447 1.81731 5.74798 1.81731 5.14445 1.82773V0.605769Z" fill="#76C54B"/>
<path fill-rule="evenodd" clip-rule="evenodd" d="M0 8.81633C0 8.04582 1.01592e-07 7.36099 0.0116101 6.75H17.9884C18 7.36099 18 8.04582 18 8.81633V10.6531C18 14.1164 18 15.8482 16.9456 16.924C15.8912 18 14.1941 18 10.8 18H7.2C3.80588 18 2.10883 18 1.05441 16.924C1.6888e-07 15.8482 0 14.1164 0 10.6531V8.81633ZM13.5 10.6531C13.9971 10.6531 14.4 10.2419 14.4 9.7347C14.4 9.22748 13.9971 8.81633 13.5 8.81633C13.0029 8.81633 12.6 9.22748 12.6 9.7347C12.6 10.2419 13.0029 10.6531 13.5 10.6531ZM13.5 14.3265C13.9971 14.3265 14.4 13.9154 14.4 13.4082C14.4 12.901 13.9971 12.4898 13.5 12.4898C13.0029 12.4898 12.6 12.901 12.6 13.4082C12.6 13.9154 13.0029 14.3265 13.5 14.3265ZM9.9 9.7347C9.9 10.2419 9.49707 10.6531 9 10.6531C8.50293 10.6531 8.1 10.2419 8.1 9.7347C8.1 9.22748 8.50293 8.81633 9 8.81633C9.49707 8.81633 9.9 9.22748 9.9 9.7347ZM9.9 13.4082C9.9 13.9154 9.49707 14.3265 9 14.3265C8.50293 14.3265 8.1 13.9154 8.1 13.4082C8.1 12.901 8.50293 12.4898 9 12.4898C9.49707 12.4898 9.9 12.901 9.9 13.4082ZM4.5 10.6531C4.99705 10.6531 5.4 10.2419 5.4 9.7347C5.4 9.22748 4.99705 8.81633 4.5 8.81633C4.00295 8.81633 3.6 9.22748 3.6 9.7347C3.6 10.2419 4.00295 10.6531 4.5 10.6531ZM4.5 14.3265C4.99705 14.3265 5.4 13.9154 5.4 13.4082C5.4 12.901 4.99705 12.4898 4.5 12.4898C4.00295 12.4898 3.6 12.901 3.6 13.4082C3.6 13.9154 4.00295 14.3265 4.5 14.3265Z" fill="#76C54B"/>
</svg>
