<svg width="40" height="40" viewBox="0 0 40 40" fill="none" xmlns="http://www.w3.org/2000/svg">
<path d="M11.5671 3.33331C12.2602 3.33331 12.8221 3.87366 12.8221 4.54021V6.97476C13.9353 6.954 15.183 6.954 16.587 6.954H23.2802C24.684 6.954 25.9318 6.954 27.045 6.97476V4.54021C27.045 3.87366 27.6068 3.33331 28.3 3.33331C28.993 3.33331 29.555 3.87366 29.555 4.54021V7.08155C31.9633 7.26701 33.5445 7.7222 34.706 8.8393C35.8677 9.9564 36.341 11.4769 36.5338 13.7931L36.6667 15H4.87426H3.33333V13.7931C3.52618 11.4769 3.99949 9.9564 5.16108 8.8393C6.32268 7.7222 7.90376 7.26701 10.3122 7.08155V4.54021C10.3122 3.87366 10.874 3.33331 11.5671 3.33331Z" fill="#76C54B"/>
<path opacity="0.5" d="M36.6658 23.3335V20.0002C36.6658 18.6017 36.6605 16.1088 36.639 15H3.34862C3.32711 16.1088 3.33256 18.6017 3.33256 20.0002V23.3335C3.33256 29.6188 3.33256 32.7615 5.28517 34.7142C7.23779 36.6668 10.3805 36.6668 16.6659 36.6668H23.3325C29.618 36.6668 32.7607 36.6668 34.7133 34.7142C36.6658 32.7615 36.6658 29.6188 36.6658 23.3335Z" fill="#76C54B"/>
<path d="M30 28.3334C30 29.2539 29.2538 30 28.3333 30C27.4128 30 26.6667 29.2539 26.6667 28.3334C26.6667 27.4129 27.4128 26.6667 28.3333 26.6667C29.2538 26.6667 30 27.4129 30 28.3334Z" fill="#76C54B"/>
<path d="M30 21.6667C30 22.5872 29.2538 23.3333 28.3333 23.3333C27.4128 23.3333 26.6667 22.5872 26.6667 21.6667C26.6667 20.7462 27.4128 20 28.3333 20C29.2538 20 30 20.7462 30 21.6667Z" fill="#76C54B"/>
<path d="M21.6667 28.3334C21.6667 29.2539 20.9205 30 20 30C19.0795 30 18.3333 29.2539 18.3333 28.3334C18.3333 27.4129 19.0795 26.6667 20 26.6667C20.9205 26.6667 21.6667 27.4129 21.6667 28.3334Z" fill="#76C54B"/>
<path d="M21.6667 21.6667C21.6667 22.5872 20.9205 23.3333 20 23.3333C19.0795 23.3333 18.3333 22.5872 18.3333 21.6667C18.3333 20.7462 19.0795 20 20 20C20.9205 20 21.6667 20.7462 21.6667 21.6667Z" fill="#76C54B"/>
<path d="M13.3333 28.3334C13.3333 29.2539 12.5871 30 11.6667 30C10.7462 30 10 29.2539 10 28.3334C10 27.4129 10.7462 26.6667 11.6667 26.6667C12.5871 26.6667 13.3333 27.4129 13.3333 28.3334Z" fill="#76C54B"/>
<path d="M13.3333 21.6667C13.3333 22.5872 12.5871 23.3333 11.6667 23.3333C10.7462 23.3333 10 22.5872 10 21.6667C10 20.7462 10.7462 20 11.6667 20C12.5871 20 13.3333 20.7462 13.3333 21.6667Z" fill="#76C54B"/>
</svg>
