<svg width="18" height="18" viewBox="0 0 18 18" fill="none" xmlns="http://www.w3.org/2000/svg">
<path fill-rule="evenodd" clip-rule="evenodd" d="M17.6765 15.5949C17.1209 17.2833 14.9441 18.1253 13.3889 17.9849C11.2648 17.7929 8.95363 16.6664 7.19922 15.4256C4.6204 13.6016 2.20477 10.7803 0.797161 7.78635C-0.197647 5.6708 -0.420846 3.06976 1.05877 1.14141C1.60597 0.428628 2.19757 0.0479475 3.08678 0.0035487C4.32039 -0.0564497 4.49319 0.649253 4.9168 1.74842C5.2324 2.5704 5.6536 3.40888 5.8888 4.26086C6.32921 5.85081 4.78959 5.91727 4.59519 7.21683C4.47399 8.03641 5.4676 9.13551 5.91641 9.71989C6.79601 10.8647 7.85322 11.852 9.04603 12.6032C9.72883 13.034 10.8316 13.8103 11.614 13.3819C12.8189 12.7219 12.7049 10.6905 14.3897 11.378C15.2621 11.7332 16.1069 12.2458 16.9397 12.6946C18.2273 13.387 18.1673 14.1046 17.6765 15.5949C18.0437 14.4814 17.3093 16.7085 17.6765 15.5949Z" fill="#76C54B"/>
</svg>
