<svg width="24" height="24" viewBox="0 0 24 24" fill="none" xmlns="http://www.w3.org/2000/svg">
<path d="M12 24C5.37231 24 0 18.6277 0 12C0 5.37231 5.37231 0 12 0C18.6277 0 24 5.37231 24 12C24 18.6277 18.6277 24 12 24ZM17.5025 8.50062C17.7277 8.27538 17.7277 7.90892 17.5025 7.68369L16.2766 6.45877C16.0514 6.23354 15.6849 6.23354 15.4597 6.45877L11.988 9.93046L8.51631 6.45877C8.29108 6.23354 7.92461 6.23354 7.69938 6.45877L6.47354 7.68369C6.24831 7.90892 6.24831 8.27538 6.47354 8.50062L9.94615 11.9732L6.47354 15.444C6.24831 15.6692 6.24831 16.0357 6.47354 16.2609L7.69938 17.4868C7.92461 17.712 8.29108 17.712 8.51631 17.4868L11.988 14.0142L15.4597 17.4868C15.6849 17.712 16.0514 17.712 16.2766 17.4868L17.5025 16.2609C17.7277 16.0357 17.7277 15.6692 17.5025 15.444L14.0298 11.9732L17.5025 8.50062Z" fill="black"/>
</svg>
