<svg width="19" height="20" viewBox="0 0 19 20" fill="none" xmlns="http://www.w3.org/2000/svg">
<path d="M6.53125 3.75027V1.87402C6.53125 1.70826 6.59381 1.54929 6.70516 1.43208C6.8165 1.31487 6.96753 1.24902 7.125 1.24902H11.875C12.0325 1.24902 12.1835 1.31487 12.2948 1.43208C12.4062 1.54929 12.4688 1.70826 12.4688 1.87402V3.75027H17.2188C17.3762 3.75027 17.5272 3.81612 17.6386 3.93333C17.7499 4.05054 17.8125 4.20951 17.8125 4.37527C17.8125 4.54103 17.7499 4.7 17.6386 4.81721C17.5272 4.93442 17.3762 5.00027 17.2188 5.00027H1.78125C1.62378 5.00027 1.47276 4.93442 1.36141 4.81721C1.25006 4.7 1.1875 4.54103 1.1875 4.37527C1.1875 4.20951 1.25006 4.05054 1.36141 3.93333C1.47276 3.81612 1.62378 3.75027 1.78125 3.75027H6.53125ZM7.71875 3.75027H11.2812V2.50027H7.71875V3.75027ZM3.5625 18.7503C3.40503 18.7503 3.25401 18.6844 3.14266 18.5672C3.03131 18.45 2.96875 18.291 2.96875 18.1253V5.00027H16.0312V18.1253C16.0312 18.291 15.9687 18.45 15.8573 18.5672C15.746 18.6844 15.595 18.7503 15.4375 18.7503H3.5625ZM7.71875 15.0003C7.87622 15.0003 8.02725 14.9344 8.13859 14.8172C8.24994 14.7 8.3125 14.541 8.3125 14.3753V8.12527C8.3125 7.95951 8.24994 7.80054 8.13859 7.68333C8.02725 7.56612 7.87622 7.50027 7.71875 7.50027C7.56128 7.50027 7.41025 7.56612 7.29891 7.68333C7.18756 7.80054 7.125 7.95951 7.125 8.12527V14.3753C7.125 14.541 7.18756 14.7 7.29891 14.8172C7.41025 14.9344 7.56128 15.0003 7.71875 15.0003ZM11.2812 15.0003C11.4387 15.0003 11.5897 14.9344 11.7011 14.8172C11.8124 14.7 11.875 14.541 11.875 14.3753V8.12527C11.875 7.95951 11.8124 7.80054 11.7011 7.68333C11.5897 7.56612 11.4387 7.50027 11.2812 7.50027C11.1238 7.50027 10.9728 7.56612 10.8614 7.68333C10.7501 7.80054 10.6875 7.95951 10.6875 8.12527V14.3753C10.6875 14.541 10.7501 14.7 10.8614 14.8172C10.9728 14.9344 11.1238 15.0003 11.2812 15.0003Z" fill="black"/>
</svg>
