<svg width="23" height="26" viewBox="0 0 23 26" fill="none" xmlns="http://www.w3.org/2000/svg">
<path fill-rule="evenodd" clip-rule="evenodd" d="M23 0V26H1.53333V20.0523H0.766671C0.343472 20.0523 0 19.7097 0 19.2876C0 18.8655 0.343472 18.5229 0.766671 18.5229H1.53333V13.9346H0.766671C0.343472 13.9346 0 13.592 0 13.1699C0 12.7478 0.343472 12.4052 0.766671 12.4052H1.53333V7.81698H0.766671C0.343472 7.81698 0 7.47439 0 7.05228C0 6.63016 0.343472 6.28757 0.766671 6.28757H1.53333V0H23ZM15.9225 18.8189H7.24803V20.3483H15.9225V18.8189ZM17.4035 15.9098H7.24803V17.4392H17.4035V15.9098ZM15.9225 8.66709H7.24803V10.1965H15.9225V8.66709ZM17.4035 5.75793H7.24803V7.28733H17.4035V5.75793Z" fill="white"/>
</svg>
