<svg width="26" height="26" viewBox="0 0 26 26" fill="none" xmlns="http://www.w3.org/2000/svg">
<path d="M20.5827 3.25H5.41602C3.88395 3.25 3.11792 3.25 2.64197 3.69655C2.16602 4.1431 2.16602 4.86181 2.16602 6.29922V7.04652C2.16602 8.17085 2.16602 8.73301 2.44725 9.19904C2.72848 9.66507 3.24227 9.9543 4.26987 10.5328L7.42564 12.3093C8.1151 12.6973 8.45982 12.8914 8.70665 13.1057C9.22067 13.552 9.5371 14.0763 9.68049 14.7195C9.74935 15.0282 9.74935 15.3896 9.74935 16.1123V19.0043C9.74935 19.9897 9.74935 20.4823 10.0223 20.8664C10.2952 21.2505 10.7799 21.4399 11.7494 21.819C13.7845 22.6146 14.8021 23.0124 15.5258 22.5598C16.2493 22.1072 16.2493 21.0729 16.2493 19.0043V16.1123C16.2493 15.3896 16.2493 15.0282 16.3182 14.7195C16.4616 14.0763 16.778 13.552 17.2921 13.1057C17.5388 12.8914 17.8836 12.6973 18.5731 12.3093L21.7288 10.5328C22.7564 9.9543 23.2702 9.66507 23.5514 9.19904C23.8327 8.73301 23.8327 8.17085 23.8327 7.04652V6.29922C23.8327 4.86181 23.8327 4.1431 23.3568 3.69655C22.8808 3.25 22.1147 3.25 20.5827 3.25Z" fill="#808080"/>
</svg>
