<svg width="20" height="29" viewBox="0 0 20 29" fill="none" xmlns="http://www.w3.org/2000/svg">
<path d="M1.01695 0C1.57859 0 2.0339 0.452926 2.0339 1.01163V3.50698L4.36701 3.0428C6.60502 2.59754 8.92488 2.80941 11.0439 3.65261L11.3201 3.76249C13.4369 4.60478 15.7668 4.76208 17.9786 4.21201C19.0054 3.95667 20 4.7292 20 5.78205V15.7189C20 16.588 19.4054 17.3455 18.5578 17.5563L18.2671 17.6286C15.8677 18.2254 13.3403 18.0547 11.0439 17.141C8.92488 16.2977 6.60502 16.086 4.36701 16.5312L2.0339 16.9953V27.9884C2.0339 28.5471 1.57859 29 1.01695 29C0.455308 29 0 28.5471 0 27.9884V1.01163C0 0.452926 0.455308 0 1.01695 0Z" fill="black"/>
</svg>
