<svg width="1440" height="227" viewBox="0 0 1440 227" fill="none" xmlns="http://www.w3.org/2000/svg">
<path d="M-3.30182e-07 47.9542C79.3485 36.2521 238.045 55.4769 412.612 175.842M444.351 188.38C502.54 203.426 644.309 211.952 745.876 125.69" stroke="#8CC53D" stroke-width="10" stroke-linecap="round"/>
<path d="M793.817 106C846.132 65.8798 1000.98 -0.820154 1201.87 53.3422" stroke="#008551" stroke-width="10" stroke-linecap="round"/>
<path d="M1284.38 95C1321.03 133.146 1441.48 204.463 1630 184.56" stroke="#0078AE" stroke-width="10" stroke-linecap="round"/>
<path d="M-3.30182e-07 207.046C79.3485 218.748 238.045 199.523 412.612 79.1579M444.351 66.6196C502.54 51.574 644.309 43.0481 745.876 129.31" stroke="#8CC53D" stroke-width="10" stroke-linecap="round"/>
<path d="M793.817 149C846.132 189.12 1000.98 255.82 1201.87 201.658" stroke="#008551" stroke-width="10" stroke-linecap="round"/>
<path d="M1284.38 160C1321.03 121.854 1441.48 50.5372 1630 70.4395" stroke="#0078AE" stroke-width="10" stroke-linecap="round"/>
<circle cx="1013" cy="59" r="59" fill="#8CC53D"/>
</svg>
