<svg width="22" height="26" viewBox="0 0 22 26" fill="none" xmlns="http://www.w3.org/2000/svg">
<path d="M12.4079 1.70671C11.1166 1.70671 10.0687 2.72839 10.0687 3.98743C10.0687 5.24647 11.1166 6.26815 12.4079 6.26815C13.6992 6.26815 14.7471 5.24647 14.7471 3.98743C14.7471 2.72839 13.6992 1.70671 12.4079 1.70671ZM21.4047 5.59735L14.0802 9.96272L13.1382 21.0464C13.0853 21.7791 12.4502 22.3467 11.6987 22.3467C11.667 22.3467 11.6352 22.3467 11.6035 22.3467L7.0521 22.0681C6.76632 22.0474 6.50171 21.9546 6.27943 21.7894L8.7668 19.3539L10.3651 19.4468L10.5238 17.2383H9.74058L5.67611 21.2218C5.39033 21.4902 5.03045 21.6346 4.66 21.6346C4.30012 21.6346 3.94025 21.5005 3.65446 21.2425L0.436762 18.2084C-0.134803 17.6718 -0.145388 16.7842 0.405009 16.227C0.955405 15.6697 1.86568 15.6594 2.43724 16.196L4.64941 18.26L7.36964 15.5974L8.0788 8.37344L3.15699 1.93375C2.74419 1.39711 2.86062 0.633433 3.41102 0.241273C3.96142 -0.161207 4.74467 -0.0476874 5.14688 0.488953L9.66648 6.39199L13.5722 7.424L20.1028 3.53335C20.685 3.18247 21.4577 3.36823 21.8175 3.93583C22.1774 4.50343 21.9869 5.24647 21.4047 5.59735ZM7.30613 23.1517H8.14231V25.1847H7.30613V23.1517ZM5.64436 23.1517H6.48054V26H5.64436V23.1517ZM3.972 23.1517H4.80818V25.1847H3.972V23.1517Z" fill="#76C54B"/>
</svg>
