<svg width="22" height="27" viewBox="0 0 22 27" fill="none" xmlns="http://www.w3.org/2000/svg">
<path d="M20.7778 17.1818C20.4536 17.1818 20.1427 17.3111 19.9135 17.5413C19.6843 17.7714 19.5556 18.0836 19.5556 18.4091V19.0227H9.77778C9.45362 19.0227 9.14275 18.8934 8.91354 18.6633C8.68433 18.4331 8.55556 18.1209 8.55556 17.7955C8.55556 17.47 8.68433 17.1578 8.91354 16.9276C9.14275 16.6975 9.45362 16.5682 9.77778 16.5682H12.2222C14.1671 16.5682 16.0324 15.7924 17.4077 14.4114C18.7829 13.0305 19.5556 11.1575 19.5556 9.20455C19.5556 7.25159 18.7829 5.37862 17.4077 3.99767C16.0324 2.61672 14.1671 1.84091 12.2222 1.84091H2.44444V1.22727C2.44444 0.90178 2.31567 0.589618 2.08646 0.35946C1.85725 0.129302 1.54638 0 1.22222 0C0.898069 0 0.587192 0.129302 0.357981 0.35946C0.128769 0.589618 0 0.90178 0 1.22727V8.59091C0 8.9164 0.128769 9.22856 0.357981 9.45872C0.587192 9.68888 0.898069 9.81818 1.22222 9.81818C1.54638 9.81818 1.85725 9.68888 2.08646 9.45872C2.31567 9.22856 2.44444 8.9164 2.44444 8.59091V7.97727H12.2222C12.5464 7.97727 12.8573 8.10658 13.0865 8.33673C13.3157 8.56689 13.4444 8.87905 13.4444 9.20455C13.4444 9.53004 13.3157 9.8422 13.0865 10.0724C12.8573 10.3025 12.5464 10.4318 12.2222 10.4318H9.77778C7.83286 10.4318 5.9676 11.2076 4.59233 12.5886C3.21706 13.9695 2.44444 15.8425 2.44444 17.7955C2.44444 19.7484 3.21706 21.6214 4.59233 23.0023C5.9676 24.3833 7.83286 25.1591 9.77778 25.1591H19.5556V25.7727C19.5556 26.0982 19.6843 26.4104 19.9135 26.6405C20.1427 26.8707 20.4536 27 20.7778 27C21.1019 27 21.4128 26.8707 21.642 26.6405C21.8712 26.4104 22 26.0982 22 25.7727V18.4091C22 18.0836 21.8712 17.7714 21.642 17.5413C21.4128 17.3111 21.1019 17.1818 20.7778 17.1818Z" fill="white"/>
</svg>
