<svg width="21" height="22" viewBox="0 0 21 22" fill="none" xmlns="http://www.w3.org/2000/svg">
<path fill-rule="evenodd" clip-rule="evenodd" d="M12.466 0.167464C12.0567 4.91738e-08 11.5378 0 10.5 0C9.46215 0 8.94322 4.91738e-08 8.53395 0.167464C7.98817 0.390753 7.55456 0.819038 7.3285 1.35809C7.22531 1.60417 7.18492 1.89035 7.16911 2.30779C7.14589 2.92125 6.82738 3.48908 6.28913 3.79602C5.75087 4.10296 5.09375 4.09149 4.54427 3.80464C4.17035 3.60943 3.89924 3.50088 3.63188 3.46612C3.0462 3.38996 2.45388 3.54672 1.98523 3.90192C1.63373 4.16832 1.37427 4.61219 0.85536 5.49992C0.33645 6.38767 0.0770011 6.83153 0.0191738 7.2654C-0.0579404 7.84388 0.100775 8.42893 0.460394 8.89185C0.624537 9.10316 0.855216 9.2807 1.21324 9.5029C1.73958 9.8296 2.07824 10.3861 2.07821 11C2.07818 11.6139 1.73953 12.1703 1.21324 12.4969C0.855161 12.7192 0.624437 12.8968 0.460284 13.1082C0.100665 13.571 -0.0580397 14.156 0.0190634 14.7345C0.0768907 15.1683 0.336351 15.6123 0.855249 16.5C1.37416 17.3877 1.63362 17.8317 1.98511 18.098C2.45377 18.4532 3.04609 18.6099 3.63177 18.5338C3.89912 18.499 4.17021 18.3905 4.54409 18.1953C5.09362 17.9084 5.75079 17.897 6.28907 18.2039C6.82736 18.5109 7.14588 19.0787 7.16911 19.6923C7.18492 20.1096 7.22531 20.3959 7.3285 20.6419C7.55456 21.1809 7.98817 21.6093 8.53395 21.8326C8.94322 22 9.46215 22 10.5 22C11.5378 22 12.0567 22 12.466 21.8326C13.0118 21.6093 13.4454 21.1809 13.6714 20.6419C13.7747 20.3959 13.8151 20.1097 13.8309 19.6922C13.8541 19.0787 14.1726 18.5109 14.7108 18.2039C15.2491 17.8969 15.9063 17.9084 16.4558 18.1953C16.8297 18.3905 17.1007 18.4989 17.3681 18.5337C17.9538 18.6099 18.5461 18.4532 19.0147 18.098C19.3663 17.8316 19.6257 17.3877 20.1446 16.4999C20.6635 15.6122 20.9229 15.1683 20.9809 14.7345C21.0579 14.156 20.8992 13.5709 20.5396 13.108C20.3754 12.8967 20.1447 12.7191 19.7866 12.4969C19.2604 12.1703 18.9218 11.6138 18.9218 10.9999C18.9218 10.386 19.2604 9.82971 19.7866 9.50312C20.1448 9.28081 20.3755 9.10327 20.5397 8.89185C20.8993 8.429 21.058 7.84396 20.981 7.26547C20.923 6.8316 20.6636 6.38773 20.1447 5.5C19.6258 4.61227 19.3664 4.1684 19.0148 3.902C18.5462 3.5468 17.9539 3.39004 17.3682 3.4662C17.1008 3.50096 16.8297 3.6095 16.4559 3.80468C15.9064 4.09155 15.2492 4.10302 14.7109 3.79606C14.1727 3.4891 13.8541 2.92123 13.8308 2.30773C13.815 1.89033 13.7747 1.60416 13.6714 1.35809C13.4454 0.819038 13.0118 0.390753 12.466 0.167464ZM10.5 14.3C12.3452 14.3 13.841 12.8226 13.841 11C13.841 9.17741 12.3452 7.7 10.5 7.7C8.65475 7.7 7.15896 9.17741 7.15896 11C7.15896 12.8226 8.65475 14.3 10.5 14.3Z" fill="white"/>
</svg>
