<svg width="41" height="41" viewBox="0 0 41 41" fill="none" xmlns="http://www.w3.org/2000/svg">
<path d="M37.3588 17.151C37.5286 16.3019 36.8494 15.2831 36.0003 15.2831L26.3211 13.9246L21.906 5.09438C21.7361 4.75476 21.5663 4.58495 21.2267 4.41514C20.3776 3.9057 19.3588 4.24533 18.8493 5.09438L14.6041 13.9246L4.92479 15.2831C4.41535 15.2831 4.07573 15.4529 3.90592 15.7925C3.22667 16.4717 3.22667 17.4906 3.90592 18.1699L10.8682 24.9623L9.17008 34.6416C9.17008 34.9812 9.17008 35.3208 9.33989 35.6604C9.84933 36.5095 10.8682 36.8491 11.7173 36.3397L20.3776 31.7548L29.038 36.3397C29.2079 36.5095 29.5475 36.5095 29.8871 36.5095C30.0569 36.5095 30.0569 36.5095 30.2267 36.5095C31.0758 36.3397 31.755 35.4906 31.5852 34.4718L29.8871 24.7925L36.8494 18.0001C37.189 17.8302 37.3588 17.4906 37.3588 17.151Z" fill="#FACC15"/>
</svg>
