<svg width="243" height="41" viewBox="0 0 243 41" fill="none" xmlns="http://www.w3.org/2000/svg">
<path d="M37.3588 17.151C37.5286 16.3019 36.8494 15.2831 36.0003 15.2831L26.3211 13.9246L21.906 5.09438C21.7361 4.75476 21.5663 4.58495 21.2267 4.41514C20.3776 3.9057 19.3588 4.24533 18.8493 5.09438L14.6041 13.9246L4.92479 15.2831C4.41535 15.2831 4.07573 15.4529 3.90592 15.7925C3.22667 16.4717 3.22667 17.4906 3.90592 18.1699L10.8682 24.9623L9.17008 34.6416C9.17008 34.9812 9.17008 35.3208 9.33989 35.6604C9.84933 36.5095 10.8682 36.8491 11.7173 36.3397L20.3776 31.7548L29.038 36.3397C29.2079 36.5095 29.5475 36.5095 29.8871 36.5095C30.0569 36.5095 30.0569 36.5095 30.2267 36.5095C31.0758 36.3397 31.755 35.4906 31.5852 34.4718L29.8871 24.7925L36.8494 18.0001C37.189 17.8302 37.3588 17.4906 37.3588 17.151Z" fill="#FACC15"/>
<path d="M87.8949 17.151C88.0648 16.3019 87.3855 15.2831 86.5365 15.2831L76.8572 13.9246L72.4421 5.09438C72.2723 4.75476 72.1025 4.58495 71.7628 4.41514C70.9138 3.9057 69.8949 4.24533 69.3855 5.09438L65.1402 13.9246L55.4609 15.2831C54.9515 15.2831 54.6119 15.4529 54.4421 15.7925C53.7628 16.4717 53.7628 17.4906 54.4421 18.1699L61.4043 24.9623L59.7062 34.6416C59.7062 34.9812 59.7062 35.3208 59.876 35.6604C60.3855 36.5095 61.4043 36.8491 62.2534 36.3397L70.9138 31.7548L79.5742 36.3397C79.744 36.5095 80.0836 36.5095 80.4232 36.5095C80.593 36.5095 80.593 36.5095 80.7629 36.5095C81.6119 36.3397 82.2912 35.4906 82.1214 34.4718L80.4232 24.7925L87.3855 18.0001C87.7251 17.8302 87.8949 17.4906 87.8949 17.151Z" fill="#FACC15"/>
<path d="M138.431 17.151C138.6 16.3019 137.921 15.2831 137.072 15.2831L127.393 13.9246L122.978 5.09438C122.808 4.75476 122.638 4.58495 122.298 4.41514C121.449 3.9057 120.431 4.24533 119.921 5.09438L115.676 13.9246L105.997 15.2831C105.487 15.2831 105.148 15.4529 104.978 15.7925C104.298 16.4717 104.298 17.4906 104.978 18.1699L111.94 24.9623L110.242 34.6416C110.242 34.9812 110.242 35.3208 110.412 35.6604C110.921 36.5095 111.94 36.8491 112.789 36.3397L121.449 31.7548L130.11 36.3397C130.28 36.5095 130.619 36.5095 130.959 36.5095C131.129 36.5095 131.129 36.5095 131.299 36.5095C132.148 36.3397 132.827 35.4906 132.657 34.4718L130.959 24.7925L137.921 18.0001C138.261 17.8302 138.431 17.4906 138.431 17.151Z" fill="#FACC15"/>
<path d="M188.966 17.151C189.136 16.3019 188.457 15.2831 187.608 15.2831L177.928 13.9246L173.513 5.09438C173.344 4.75476 173.174 4.58495 172.834 4.41514C171.985 3.9057 170.966 4.24533 170.457 5.09438L166.211 13.9246L156.532 15.2831C156.023 15.2831 155.683 15.4529 155.513 15.7925C154.834 16.4717 154.834 17.4906 155.513 18.1699L162.476 24.9623L160.778 34.6416C160.778 34.9812 160.778 35.3208 160.947 35.6604C161.457 36.5095 162.476 36.8491 163.325 36.3397L171.985 31.7548L180.645 36.3397C180.815 36.5095 181.155 36.5095 181.495 36.5095C181.664 36.5095 181.664 36.5095 181.834 36.5095C182.683 36.3397 183.362 35.4906 183.193 34.4718L181.495 24.7925L188.457 18.0001C188.796 17.8302 188.966 17.4906 188.966 17.151Z" fill="#FACC15"/>
<path d="M239.502 17.151C239.672 16.3019 238.992 15.2831 238.143 15.2831L228.464 13.9246L224.049 5.09438C223.879 4.75476 223.709 4.58495 223.37 4.41514C222.521 3.9057 221.502 4.24533 220.992 5.09438L216.747 13.9246L207.068 15.2831C206.558 15.2831 206.219 15.4529 206.049 15.7925C205.37 16.4717 205.37 17.4906 206.049 18.1699L213.011 24.9623L211.313 34.6416C211.313 34.9812 211.313 35.3208 211.483 35.6604C211.992 36.5095 213.011 36.8491 213.86 36.3397L222.521 31.7548L231.181 36.3397C231.351 36.5095 231.691 36.5095 232.03 36.5095C232.2 36.5095 232.2 36.5095 232.37 36.5095C233.219 36.3397 233.898 35.4906 233.728 34.4718L232.03 24.7925L238.992 18.0001C239.332 17.8302 239.502 17.4906 239.502 17.151Z" fill="#FACC15"/>
</svg>
