<svg width="32" height="32" viewBox="0 0 32 32" fill="none" xmlns="http://www.w3.org/2000/svg">
<g clip-path="url(#clip0_1072_757)">
<path fill-rule="evenodd" clip-rule="evenodd" d="M28.4436 12.7716C28.4436 5.58222 22.8614 0 15.9991 0C9.13691 0 3.55469 5.58222 3.55469 12.4444C1.48713 13.5058 -0.000868797 15.4596 -0.000868797 17.7778V21.3333C-0.000868797 22.7478 0.561034 24.1044 1.56123 25.1046C2.56142 26.1048 3.91798 26.6667 5.33246 26.6667H7.11024C7.58174 26.6667 8.03392 26.4794 8.36732 26.146C8.70072 25.8126 8.88802 25.3604 8.88802 24.8889V14.2222C8.88802 13.7507 8.70072 13.2985 8.36732 12.9651C8.03392 12.6317 7.58174 12.4444 7.11024 12.4444C7.11024 10.087 8.04675 7.82604 9.71374 6.15905C11.3807 4.49206 13.6417 3.55556 15.9991 3.55556C18.3566 3.55556 20.6175 4.49206 22.2845 6.15905C23.9515 7.82604 24.888 10.087 24.888 12.4444C24.4165 12.4444 23.9643 12.6317 23.6309 12.9651C23.2975 13.2985 23.1102 13.7507 23.1102 14.2222V24.8889C23.1102 25.3604 23.2975 25.8126 23.6309 26.146C23.9643 26.4794 24.4165 26.6667 24.888 26.6667V28.4444H20.28C19.9138 27.4116 18.936 26.6667 17.7769 26.6667H14.2214C13.5141 26.6667 12.8358 26.9476 12.3357 27.4477C11.8356 27.9478 11.5547 28.6261 11.5547 29.3333C11.5547 30.0406 11.8356 30.7189 12.3357 31.2189C12.8358 31.719 13.5141 32 14.2214 32H24.888C25.831 32 26.7354 31.6254 27.4022 30.9586C28.069 30.2918 28.4436 29.3874 28.4436 28.4444V26.3413C29.4813 25.9767 30.3804 25.2992 31.0172 24.4024C31.6539 23.5055 31.997 22.4333 31.9991 21.3333V17.7778C31.9972 16.678 31.6541 15.606 31.0173 14.7093C30.3805 13.8127 29.4813 13.1357 28.4436 12.7716L-12.4453 110.222L28.4436 12.7716Z" fill="white"/>
</g>
<defs>
<clipPath id="clip0_1072_757">
<rect width="32" height="32" fill="white"/>
</clipPath>
</defs>
</svg>
