<svg width="25" height="25" viewBox="0 0 25 25" fill="none" xmlns="http://www.w3.org/2000/svg">
<path fill-rule="evenodd" clip-rule="evenodd" d="M0 12.5C0 5.59644 5.59644 0 12.5 0C19.4035 0 25 5.59644 25 12.5C25 19.4035 19.4035 25 12.5 25C5.59644 25 0 19.4035 0 12.5ZM17.1339 9.11611C17.622 9.60427 17.622 10.3958 17.1339 10.8839L12.5304 15.4874C11.8232 16.1945 10.6768 16.1945 9.9696 15.4874L7.86611 13.3839C7.37796 12.8958 7.37796 12.1042 7.86611 11.6161C8.35427 11.128 9.14573 11.128 9.63389 11.6161L11.25 13.2323L15.3661 9.11611C15.8542 8.62796 16.6458 8.62796 17.1339 9.11611Z" fill="black"/>
</svg>
