<svg width="17" height="18" viewBox="0 0 17 18" fill="none" xmlns="http://www.w3.org/2000/svg">
<path d="M5.34375 2.50125V0.625C5.34375 0.45924 5.40631 0.300269 5.51766 0.183058C5.629 0.0658481 5.78003 0 5.9375 0H10.6875C10.845 0 10.996 0.0658481 11.1073 0.183058C11.2187 0.300269 11.2812 0.45924 11.2812 0.625V2.50125H16.0312C16.1887 2.50125 16.3397 2.5671 16.4511 2.68431C16.5624 2.80152 16.625 2.96049 16.625 3.12625C16.625 3.29201 16.5624 3.45098 16.4511 3.56819C16.3397 3.6854 16.1887 3.75125 16.0312 3.75125H0.59375C0.436278 3.75125 0.285255 3.6854 0.173905 3.56819C0.0625556 3.45098 0 3.29201 0 3.12625C0 2.96049 0.0625556 2.80152 0.173905 2.68431C0.285255 2.5671 0.436278 2.50125 0.59375 2.50125H5.34375ZM6.53125 2.50125H10.0938V1.25125H6.53125V2.50125ZM2.375 17.5012C2.21753 17.5012 2.06651 17.4354 1.95516 17.3182C1.84381 17.201 1.78125 17.042 1.78125 16.8762V3.75125H14.8438V16.8762C14.8438 17.042 14.7812 17.201 14.6698 17.3182C14.5585 17.4354 14.4075 17.5012 14.25 17.5012H2.375ZM6.53125 13.7512C6.68872 13.7512 6.83975 13.6854 6.95109 13.5682C7.06244 13.451 7.125 13.292 7.125 13.1262V6.87625C7.125 6.71049 7.06244 6.55152 6.95109 6.43431C6.83975 6.3171 6.68872 6.25125 6.53125 6.25125C6.37378 6.25125 6.22275 6.3171 6.11141 6.43431C6.00006 6.55152 5.9375 6.71049 5.9375 6.87625V13.1262C5.9375 13.292 6.00006 13.451 6.11141 13.5682C6.22275 13.6854 6.37378 13.7512 6.53125 13.7512ZM10.0938 13.7512C10.2512 13.7512 10.4022 13.6854 10.5136 13.5682C10.6249 13.451 10.6875 13.292 10.6875 13.1262V6.87625C10.6875 6.71049 10.6249 6.55152 10.5136 6.43431C10.4022 6.3171 10.2512 6.25125 10.0938 6.25125C9.93628 6.25125 9.78525 6.3171 9.6739 6.43431C9.56256 6.55152 9.5 6.71049 9.5 6.87625V13.1262C9.5 13.292 9.56256 13.451 9.6739 13.5682C9.78525 13.6854 9.93628 13.7512 10.0938 13.7512Z" fill="black"/>
</svg>
