<svg width="1440" height="175" viewBox="0 0 1440 175" fill="none" xmlns="http://www.w3.org/2000/svg">
<path d="M475.875 167.046C396.527 178.748 237.83 159.523 63.2635 39.1579M31.5241 26.6196C-26.6647 11.574 -168.434 3.04814 -270 89.3097" stroke="#0484CD" stroke-width="10" stroke-linecap="round"/>
<path d="M475.875 7.95425C396.527 -3.7479 237.83 15.4769 63.2635 135.842M31.5241 148.38C-26.6647 163.426 -168.434 171.952 -270 85.6903" stroke="#0484CD" stroke-width="10" stroke-linecap="round"/>
<path d="M1048 167.046C1127.35 178.748 1286.05 159.523 1460.61 39.1579M1492.35 26.6196C1550.54 11.574 1692.31 3.04814 1793.88 89.3097" stroke="#0484CD" stroke-width="10" stroke-linecap="round"/>
<path d="M1048 7.95425C1127.35 -3.7479 1286.05 15.4769 1460.61 135.842M1492.35 148.38C1550.54 163.426 1692.31 171.952 1793.88 85.6903" stroke="#0484CD" stroke-width="10" stroke-linecap="round"/>
</svg>
