<svg width="31" height="31" viewBox="0 0 31 31" fill="none" xmlns="http://www.w3.org/2000/svg">
<g clip-path="url(#clip0_1078_852)">
<path d="M27.2796 6.12988H3.71961C3.37861 6.12988 3.09961 6.40888 3.09961 6.74988V22.2499C3.09961 22.5909 3.37861 22.8699 3.71961 22.8699H27.2796C27.6206 22.8699 27.8996 22.5909 27.8996 22.2499V6.74988C27.8996 6.40888 27.6206 6.12988 27.2796 6.12988ZM25.7916 7.36988L15.4996 17.6619L5.20761 7.36988H25.7916ZM4.33961 8.23788L10.6016 14.4999L4.33961 20.7619V8.23788ZM5.23861 21.6299L11.4696 15.3989L15.0656 18.9949C15.3136 19.2429 15.6856 19.2429 15.9336 18.9949L19.5296 15.3989L25.7606 21.6299H5.23861ZM26.6596 20.7619L20.3976 14.4999L26.6596 8.23788V20.7619Z" fill="#8CC53D"/>
<path d="M249.241 -158.1V363.94H-303.799V-158.1H249.241ZM251.721 -160.58H-306.279V366.42H251.721V-160.58Z" fill="#0000FF"/>
</g>
<defs>
<clipPath id="clip0_1078_852">
<rect width="31" height="31" fill="white"/>
</clipPath>
</defs>
</svg>
