<svg width="48" height="48" viewBox="0 0 48 48" fill="none" xmlns="http://www.w3.org/2000/svg">
<g clip-path="url(#clip0_74_784)">
<path d="M46.4644 0.554749H20.9481C20.0992 0.554749 19.4126 1.24349 19.4126 2.09113V12.9278L20.5228 11.6297C21.05 11.0126 21.745 10.632 22.4837 10.473V3.62691H44.9287V23.688H22.4838V20.3298L21.7923 21.1384C21.188 21.8435 20.335 22.2811 19.4126 22.3673V25.2239C19.4126 26.0715 20.0992 26.7594 20.9481 26.7594H29.2351L25.0249 45.8735C24.8363 46.7307 25.378 47.5784 26.2359 47.7675C27.0859 47.9543 27.9407 47.4143 28.1276 46.5581L32.4881 26.7595H35.0229L39.3834 46.5581C39.5468 47.2993 40.2043 47.8051 40.9334 47.8042C41.0466 47.8042 41.1624 47.7927 41.2769 47.7675C42.1348 47.5784 42.6764 46.7308 42.4861 45.8735L38.2764 26.7594H46.4645C47.3126 26.7594 48 26.0715 48 25.2239V2.09113C47.9999 1.24349 47.3125 0.554749 46.4644 0.554749Z" fill="white"/>
<path d="M34.267 9.52547C34.146 9.22043 33.8029 9.07066 33.4981 9.1914L24.4514 12.3845C23.6212 11.7417 22.4233 11.8565 21.7309 12.6618L18.8603 16.0141L16.3149 13.8322C16.3317 14.0124 16.3699 14.1875 16.3699 14.3724V19.1089L17.786 20.3223C18.6264 21.042 19.8835 20.9308 20.5862 20.1067L24.0036 16.1105L26.7597 14.4981L34.0131 10.2543C34.2639 10.1098 34.375 9.80079 34.267 9.52547Z" fill="white"/>
<path d="M10.7821 10.3749H9.07736C7.77206 10.3749 6.62429 11.0093 5.89475 11.9763L0.661811 16.7941C-0.153555 17.5204 -0.22751 18.7786 0.506742 19.5988L4.77611 24.3642C5.50399 25.1792 6.76397 25.2513 7.57923 24.5188C8.39666 23.7862 8.46571 22.5314 7.73322 21.715L4.79043 18.4288L8.97035 14.6885L6.53592 17.9959L8.91729 20.6547C10.2332 22.1252 10.1091 24.3845 8.63932 25.7014C7.63583 26.601 6.26639 26.8121 5.07919 26.3972C5.07919 26.3972 5.09763 35.5836 5.09763 45.4216C5.09763 46.7375 6.16419 47.8041 7.48017 47.8041C8.79478 47.8041 9.86271 46.7375 9.86271 45.4216C9.86271 35.5866 9.86271 41.199 9.86271 31.222H11.452C11.452 41.1918 11.452 35.5836 11.452 45.4216C11.452 46.1086 11.2604 46.7448 10.955 47.3078C11.3548 47.6153 11.8522 47.8041 12.3944 47.8041C13.7111 47.8041 14.7777 46.7375 14.7777 45.4216C14.7777 35.5866 14.7807 39.7095 14.7807 14.3723C14.7809 12.1645 12.9912 10.3749 10.7821 10.3749Z" fill="white"/>
<path d="M7.80649 8.945C8.44354 9.27613 9.15876 9.48162 9.92705 9.48162C10.6973 9.48162 11.4125 9.27613 12.0514 8.94441C13.5427 8.17181 14.5706 6.63367 14.5706 4.83845C14.5706 2.27397 12.4916 0.195679 9.92695 0.195679C7.36266 0.195679 5.28418 2.27397 5.28418 4.83845C5.28428 6.63465 6.31327 8.17338 7.80649 8.945Z" fill="white"/>
</g>
<defs>
<clipPath id="clip0_74_784">
<rect width="48" height="48" fill="white"/>
</clipPath>
</defs>
</svg>
