<svg width="54" height="54" viewBox="0 0 54 54" fill="none" xmlns="http://www.w3.org/2000/svg">
<g clip-path="url(#clip0_74_768)">
<path d="M43.6008 35.332H36.9562V53.5781H25.3758V42.7781H18.6891V53.5781H7.06641V35.3531H0.421875L7.06641 28.6453V17.0438H12.0445V23.6039L22.0008 13.5422L43.6008 35.332ZM53.5781 11.0109C53.5781 16.8539 48.832 21.6 42.9891 21.6C37.1461 21.6 32.4 16.8539 32.4 11.0109C32.4 5.16797 37.1461 0.421875 42.9891 0.421875C48.832 0.421875 53.5781 5.16797 53.5781 11.0109ZM46.9125 13.5422C46.9125 11.0742 44.55 10.3781 43.5375 10.0406C41.618 9.42891 41.4492 8.66953 41.4703 8.26875C41.5336 7.29844 42.4828 7.06641 43.3688 7.27734C44.0648 7.44609 44.782 7.91016 45.1828 8.24766L46.4484 6.60234C45.8367 6.11719 45.0352 5.50547 43.875 5.25234V3.64922H42.0398V5.18906C40.268 5.33672 39.0656 6.60234 39.0656 8.31094C39.0656 9.99844 40.1414 10.7789 41.2383 11.3695C42.1453 11.8547 44.6766 12.3609 44.5289 13.6477C44.4445 14.3437 43.7906 14.85 42.6937 14.7023C41.7445 14.5758 40.732 13.6688 40.732 13.6688L39.3398 15.2086C40.1836 15.968 41.0695 16.4531 42.0398 16.6641V18.1828H43.875V16.7484C45.6258 16.5586 46.9125 15.2086 46.9125 13.5422Z" fill="white"/>
</g>
<defs>
<clipPath id="clip0_74_768">
<rect width="54" height="54" fill="white"/>
</clipPath>
</defs>
</svg>
