<svg width="22" height="22" viewBox="0 0 22 22" fill="none" xmlns="http://www.w3.org/2000/svg">
<path d="M10.7913 1.79883C5.83646 1.79883 1.79883 5.83646 1.79883 10.7913C1.79883 15.7462 5.83646 19.7838 10.7913 19.7838C15.7462 19.7838 19.7838 15.7462 19.7838 10.7913C19.7838 5.83646 15.7462 1.79883 10.7913 1.79883ZM15.0898 8.72306L9.991 13.8218C9.86511 13.9477 9.69425 14.0196 9.5144 14.0196C9.33455 14.0196 9.16369 13.9477 9.0378 13.8218L6.49292 11.2769C6.23213 11.0161 6.23213 10.5845 6.49292 10.3237C6.7537 10.0629 7.18534 10.0629 7.44612 10.3237L9.5144 12.392L14.1365 7.76985C14.3973 7.50907 14.829 7.50907 15.0898 7.76985C15.3505 8.03064 15.3505 8.45328 15.0898 8.72306Z" fill="#8CC53D"/>
</svg>
