<svg width="20" height="25" viewBox="0 0 20 25" fill="none" xmlns="http://www.w3.org/2000/svg">
<path d="M18.125 10.9386C18.5376 10.9426 18.9464 11.0178 19.3333 11.161V6.10531H14.3296C14.5252 5.3883 14.5528 4.63584 14.4103 3.90642C14.2678 3.177 13.9589 2.49028 13.5078 1.89963C13.0567 1.30898 12.4755 0.830324 11.8093 0.500859C11.1431 0.171394 10.4099 0 9.66667 0C8.92345 0 8.19025 0.171394 7.52406 0.500859C6.85786 0.830324 6.27662 1.30898 5.82551 1.89963C5.3744 2.49028 5.06557 3.177 4.92305 3.90642C4.78052 4.63584 4.80812 5.3883 5.00371 6.10531H0V11.161C0.386951 11.0178 0.795751 10.9426 1.20833 10.9386C2.16974 10.9386 3.09178 11.3206 3.7716 12.0004C4.45141 12.6802 4.83333 13.6022 4.83333 14.5636C4.83333 15.5251 4.45141 16.4471 3.7716 17.1269C3.09178 17.8067 2.16974 18.1886 1.20833 18.1886C0.795751 18.1847 0.386951 18.1095 0 17.9663V24.2303H6.264C6.12079 23.8434 6.04557 23.4346 6.04167 23.022C6.04167 22.0606 6.42358 21.1385 7.1034 20.4587C7.78322 19.7789 8.70526 19.397 9.66667 19.397C10.6281 19.397 11.5501 19.7789 12.2299 20.4587C12.9097 21.1385 13.2917 22.0606 13.2917 23.022C13.2878 23.4346 13.2125 23.8434 13.0693 24.2303H19.3333V17.9663C18.9464 18.1095 18.5376 18.1847 18.125 18.1886C17.1636 18.1886 16.2416 17.8067 15.5617 17.1269C14.8819 16.4471 14.5 15.5251 14.5 14.5636C14.5 13.6022 14.8819 12.6802 15.5617 12.0004C16.2416 11.3206 17.1636 10.9386 18.125 10.9386Z" fill="white"/>
</svg>
