<svg width="28" height="22" viewBox="0 0 28 22" fill="none" xmlns="http://www.w3.org/2000/svg">
<path d="M10.85 11C10.85 9.29143 12.2604 7.90625 14 7.90625C15.7396 7.90625 17.15 9.29143 17.15 11C17.15 12.7086 15.7396 14.0938 14 14.0938C12.2604 14.0938 10.85 12.7086 10.85 11Z" fill="black"/>
<path fill-rule="evenodd" clip-rule="evenodd" d="M0 11C0 13.2542 0.594944 14.0133 1.78485 15.5316C4.16074 18.5631 8.14535 22 14 22C19.8547 22 23.8392 18.5631 26.2151 15.5316C27.405 14.0133 28 13.2542 28 11C28 8.74582 27.405 7.98673 26.2151 6.46845C23.8392 3.4369 19.8547 0 14 0C8.14535 0 4.16074 3.4369 1.78485 6.46845C0.594944 7.98673 0 8.74582 0 11ZM14 5.84375C11.1005 5.84375 8.75 8.15228 8.75 11C8.75 13.8478 11.1005 16.1562 14 16.1562C16.8995 16.1562 19.25 13.8478 19.25 11C19.25 8.15228 16.8995 5.84375 14 5.84375Z" fill="black"/>
</svg>
